<?xml version="1.0" encoding="iso-8859-1"?>
<!-- Generator: Adobe Illustrator 22.1.0, SVG Export Plug-In . SVG Version: 6.00 Build 0)  -->
<svg version="1.1" id="Layer_1" xmlns="http://www.w3.org/2000/svg" xmlns:xlink="http://www.w3.org/1999/xlink" x="0px" y="0px"	 width="64" height="64" viewBox="0 0 64 64" style="enable-background:new 0 0 64 64;" xml:space="preserve">
<g id="graphic-m-service-nextcloud">
	<rect id="graphic-m-service-nextcloud_1_" style="opacity:0;fill:#FFFFFF;" width="64" height="64"/>
	<rect style="fill:#0082C9;" width="64" height="64"/>
	<path style="fill:#FDFEFF;" d="M52.623,23.354c-4.764,0-8.626,3.862-8.626,8.626c0,4.764,3.862,8.626,8.626,8.626
		c4.764,0,8.626-3.862,8.626-8.626C61.249,27.216,57.386,23.354,52.623,23.354z M52.623,35.562c-1.978,0-3.582-1.604-3.582-3.582
		c0-1.978,1.604-3.582,3.582-3.582c1.978,0,3.582,1.604,3.582,3.582C56.205,33.959,54.601,35.562,52.623,35.562z"/>
	<path style="fill:#FDFEFF;" d="M32.023,18.643c-7.366,0-13.337,5.971-13.337,13.337c0,7.366,5.971,13.337,13.337,13.337
		S45.36,39.346,45.36,31.98C45.36,24.615,39.389,18.643,32.023,18.643z M32.023,40.226c-4.554,0-8.246-3.692-8.246-8.246
		s3.692-8.246,8.246-8.246s8.246,3.692,8.246,8.246S36.577,40.226,32.023,40.226z"/>
	<path style="fill:#FDFEFF;" d="M11.348,23.354c-4.764,0-8.626,3.862-8.626,8.626c0,4.764,3.862,8.626,8.626,8.626
		c4.764,0,8.626-3.862,8.626-8.626C19.973,27.216,16.111,23.354,11.348,23.354z M11.348,35.562c-1.978,0-3.582-1.604-3.582-3.582
		c0-1.978,1.604-3.582,3.582-3.582c1.978,0,3.582,1.604,3.582,3.582C14.93,33.959,13.326,35.562,11.348,35.562z"/>
</g>
</svg>
