<?xml version="1.0" encoding="iso-8859-1"?>
<!-- Generator: Adobe Illustrator 22.1.0, SVG Export Plug-In . SVG Version: 6.00 Build 0)  -->
<svg version="1.1" id="Layer_1" xmlns="http://www.w3.org/2000/svg" xmlns:xlink="http://www.w3.org/1999/xlink" x="0px" y="0px"	 width="135" height="135" viewBox="0 0 135 135" style="enable-background:new 0 0 135 135;" xml:space="preserve">
<g id="graphic-service-nextcloud">
	<rect id="graphic-service-nextcloud_1_" style="opacity:0;fill:#FFFFFF;" width="135" height="135"/>
	<rect style="fill:#0082C9;" width="135" height="135"/>
	<path style="fill:#FDFEFF;" d="M111.001,49.263c-10.048,0-18.195,8.146-18.195,18.195c0,10.049,8.146,18.195,18.195,18.195
		c10.049,0,18.195-8.146,18.195-18.195C129.196,57.41,121.05,49.263,111.001,49.263z M111.001,75.015
		c-4.173,0-7.556-3.383-7.556-7.556c0-4.173,3.383-7.556,7.556-7.556c4.173,0,7.557,3.383,7.557,7.556
		C118.557,71.632,115.174,75.015,111.001,75.015z"/>
	<path style="fill:#FDFEFF;" d="M67.548,39.326c-15.537,0-28.132,12.595-28.132,28.132c0,15.537,12.595,28.132,28.132,28.132
		S95.68,82.995,95.68,67.458C95.68,51.921,83.085,39.326,67.548,39.326z M67.548,84.852c-9.606,0-17.394-7.788-17.394-17.394
		s7.788-17.394,17.394-17.394s17.394,7.788,17.394,17.394S77.155,84.852,67.548,84.852z"/>
	<path style="fill:#FDFEFF;" d="M23.936,49.263c-10.048,0-18.195,8.146-18.195,18.195c0,10.049,8.146,18.195,18.195,18.195
		c10.049,0,18.195-8.146,18.195-18.195C42.132,57.41,33.985,49.263,23.936,49.263z M23.936,75.015c-4.173,0-7.556-3.383-7.556-7.556
		c0-4.173,3.383-7.556,7.556-7.556c4.173,0,7.557,3.383,7.557,7.556C31.493,71.632,28.11,75.015,23.936,75.015z"/>
</g>
</svg>
