<?xml version="1.0" encoding="iso-8859-1"?>
<!-- Generator: Adobe Illustrator 22.1.0, SVG Export Plug-In . SVG Version: 6.00 Build 0)  -->
<svg version="1.1" id="Layer_1" xmlns="http://www.w3.org/2000/svg" xmlns:xlink="http://www.w3.org/1999/xlink" x="0px" y="0px"	 width="32" height="32" viewBox="0 0 32 32" style="enable-background:new 0 0 32 32;" xml:space="preserve">
<g id="graphic-s-service-nextcloud">
	<rect id="graphic-s-service-nextcloud_1_" style="opacity:0;fill:#FFFFFF;" width="32" height="32"/>
	<rect style="fill:#0082C9;" width="32" height="32"/>
	<path style="fill:#FDFEFF;" d="M26.311,11.677c-2.382,0-4.313,1.931-4.313,4.313c0,2.382,1.931,4.313,4.313,4.313
		c2.382,0,4.313-1.931,4.313-4.313C30.624,13.608,28.693,11.677,26.311,11.677z M26.311,17.781c-0.989,0-1.791-0.802-1.791-1.791
		c0-0.989,0.802-1.791,1.791-1.791c0.989,0,1.791,0.802,1.791,1.791C28.102,16.979,27.301,17.781,26.311,17.781z"/>
	<path style="fill:#FDFEFF;" d="M16.011,9.322c-3.683,0-6.668,2.986-6.668,6.668c0,3.683,2.986,6.668,6.668,6.668
		s6.668-2.986,6.668-6.668C22.68,12.307,19.694,9.322,16.011,9.322z M16.011,20.113c-2.277,0-4.123-1.846-4.123-4.123
		s1.846-4.123,4.123-4.123s4.123,1.846,4.123,4.123S18.288,20.113,16.011,20.113z"/>
	<path style="fill:#FDFEFF;" d="M5.674,11.677c-2.382,0-4.313,1.931-4.313,4.313c0,2.382,1.931,4.313,4.313,4.313
		c2.382,0,4.313-1.931,4.313-4.313C9.987,13.608,8.056,11.677,5.674,11.677z M5.674,17.781c-0.989,0-1.791-0.802-1.791-1.791
		c0-0.989,0.802-1.791,1.791-1.791c0.989,0,1.791,0.802,1.791,1.791C7.465,16.979,6.663,17.781,5.674,17.781z"/>
</g>
</svg>
