<?xml version="1.0" encoding="iso-8859-1"?>
<!-- Generator: Adobe Illustrator 22.1.0, SVG Export Plug-In . SVG Version: 6.00 Build 0)  -->
<svg version="1.1" id="Layer_1" xmlns="http://www.w3.org/2000/svg" xmlns:xlink="http://www.w3.org/1999/xlink" x="0px" y="0px"	 width="64" height="64" viewBox="0 0 64 64" style="enable-background:new 0 0 64 64;" xml:space="preserve">
<g id="icon-m-file-folder-nexcloud">
	<path style="fill:#FDFEFF;" d="M42.075,31.664c-1.684,0-3.126,0.996-3.8,2.425c-0.777-2.726-3.281-4.725-6.257-4.725
		c-2.992,0-5.506,2.021-6.269,4.771c-0.663-1.455-2.122-2.47-3.825-2.47c-2.326,0-4.211,1.885-4.211,4.211s1.885,4.211,4.211,4.211
		c1.703,0,3.162-1.016,3.825-2.47c0.762,2.749,3.277,4.77,6.269,4.77c2.976,0,5.48-1.998,6.257-4.724
		c0.674,1.429,2.116,2.424,3.8,2.424c2.326,0,4.211-1.885,4.211-4.211S44.401,31.664,42.075,31.664z M21.925,37.624
		c-0.966,0-1.749-0.783-1.749-1.749s0.783-1.749,1.749-1.749s1.749,0.783,1.749,1.749S22.891,37.624,21.925,37.624z M32.018,39.901
		c-2.223,0-4.026-1.802-4.026-4.026s1.802-4.026,4.026-4.026s4.026,1.802,4.026,4.026S34.242,39.901,32.018,39.901z M42.075,37.624
		c-0.966,0-1.749-0.783-1.749-1.749s0.783-1.749,1.749-1.749c0.966,0,1.749,0.783,1.749,1.749S43.041,37.624,42.075,37.624z"/>
	<rect id="icon-m-file-folder-nexcloud_1_" style="opacity:0;fill:#FFFFFF;" width="64" height="64"/>
	<g style="opacity:0.6;">
		<path style="fill:#FFFFFF;" d="M30.026,16l-2.439-2.14C26.471,12.838,25.025,12,23.318,12H12.683c-1.197,0-2.357,1.214-2.357,2.5
			V20l12.803-0.327c1.063,0,3.25-0.854,4.259-1.539L30.026,16z"/>
		<path style="fill:#FFFFFF;" d="M9.326,21.026V14.5c0-1.832,1.6-3.5,3.357-3.5h10.636c1.719,0,3.429,0.734,4.944,2.123l3.315,2.908
			l-3.561,2.881c-1.234,0.841-3.594,1.761-4.888,1.761L9.326,21.026z M12.683,13c-0.592,0-1.357,0.728-1.357,1.5v4.474l11.778-0.301
			c0.796,0,2.8-0.741,3.723-1.367l1.648-1.337l-1.548-1.357C25.754,13.538,24.546,13,23.318,13H12.683z"/>
	</g>
	<path style="fill:#FFFFFF;" d="M51.75,53h-39.5C10.458,53,9,51.542,9,49.75V20.875C9,19.841,9.841,19,10.875,19h9.222
		c2.008,0,4.941-0.438,5.44-0.682c0.613-0.312,1.657-1.12,2.232-1.731C28.754,15.545,31.285,15,33.276,15h18.516
		C53.561,15,55,16.439,55,18.208V49.75C55,51.542,53.542,53,51.75,53z M11,21v28.75c0,0.689,0.561,1.25,1.25,1.25h39.5
		c0.689,0,1.25-0.561,1.25-1.25V18.208C53,17.542,52.458,17,51.792,17H33.276c-1.891,0-3.69,0.578-4.052,0.96
		c-0.74,0.784-1.962,1.725-2.783,2.142C25.432,20.615,21.896,21,20.097,21H11z"/>
</g>
</svg>
