<?xml version="1.0" encoding="iso-8859-1"?>
<!-- Generator: Adobe Illustrator 22.1.0, SVG Export Plug-In . SVG Version: 6.00 Build 0)  -->
<svg version="1.1" id="Layer_1" xmlns="http://www.w3.org/2000/svg" xmlns:xlink="http://www.w3.org/1999/xlink" x="0px" y="0px"	 width="96" height="96" viewBox="0 0 96 96" style="enable-background:new 0 0 96 96;" xml:space="preserve">
<g id="icon-l-nextcloud">
	<rect id="icon-l-nextcloud_1_" style="opacity:0;fill:#FFFFFF;" width="96" height="96"/>
	<path style="opacity:0.5;fill:#FFFFFF;" d="M78,18.75H18c-3.314,0-6,2.687-6,6v45c0,3.313,2.686,6,6,6h60c3.313,0,6-2.687,6-6v-45
		C84,21.437,81.313,18.75,78,18.75z"/>
	<g>
		<path style="fill:#FDFEFF;" d="M70.568,37.817c-5.209,0-9.433,4.223-9.433,9.433c0,5.209,4.223,9.433,9.433,9.433
			c5.209,0,9.433-4.223,9.433-9.433C80,42.041,75.777,37.817,70.568,37.817z M70.568,51.167c-2.163,0-3.917-1.754-3.917-3.917
			c0-2.163,1.754-3.917,3.917-3.917c2.164,0,3.917,1.754,3.917,3.917C74.485,49.413,72.731,51.167,70.568,51.167z"/>
		<path style="fill:#FDFEFF;" d="M48.041,32.666c-8.055,0-14.584,6.53-14.584,14.584c0,8.055,6.53,14.584,14.584,14.584
			s14.584-6.53,14.584-14.584C62.625,39.195,56.096,32.666,48.041,32.666z M48.041,56.267c-4.98,0-9.017-4.037-9.017-9.017
			s4.037-9.017,9.017-9.017s9.017,4.037,9.017,9.017S53.021,56.267,48.041,56.267z"/>
		<path style="fill:#FDFEFF;" d="M25.432,37.817c-5.209,0-9.433,4.223-9.433,9.433c0,5.209,4.223,9.433,9.433,9.433
			c5.209,0,9.433-4.223,9.433-9.433C34.865,42.041,30.642,37.817,25.432,37.817z M25.432,51.167c-2.163,0-3.917-1.754-3.917-3.917
			c0-2.163,1.754-3.917,3.917-3.917c2.164,0,3.917,1.754,3.917,3.917C29.35,49.413,27.596,51.167,25.432,51.167z"/>
	</g>
</g>
</svg>
